<?xml version="1.0" encoding="UTF-8"?>
<svg width="168px" height="39px" viewBox="0 0 168 39" version="1.1" xmlns="http://www.w3.org/2000/svg" xmlns:xlink="http://www.w3.org/1999/xlink">
    <title>LOGO/base</title>
    <g id="LOGO/base" stroke="none" stroke-width="1" fill="none" fill-rule="evenodd">
        <path d="M41.6209375,18.2 L41.6209375,12.8 C41.6209375,11.8666667 41.8342708,11.1633333 42.2609375,10.69 C42.6876042,10.2166667 43.2609375,9.98 43.9809375,9.98 C45.3409375,9.98 46.0209375,10.8266667 46.0209375,12.52 L46.0209375,12.52 L46.0209375,18.2 L49.1409375,18.2 L49.1409375,12.8 C49.1409375,11.8666667 49.3542708,11.1633333 49.7809375,10.69 C50.2076042,10.2166667 50.7876042,9.98 51.5209375,9.98 C52.1742708,9.98 52.6776042,10.19 53.0309375,10.61 C53.3842708,11.03 53.5609375,11.6666667 53.5609375,12.52 L53.5609375,12.52 L53.5609375,18.2 L56.6809375,18.2 L56.6809375,12.04 C56.6809375,10.4533333 56.2842708,9.26333333 55.4909375,8.47 C54.6976042,7.67666667 53.6276042,7.28 52.2809375,7.28 C51.4809375,7.28 50.7442708,7.43333333 50.0709375,7.74 C49.3976042,8.04666667 48.8409375,8.48 48.4009375,9.04 C48.0276042,8.46666667 47.5342708,8.03 46.9209375,7.73 C46.3076042,7.43 45.6209375,7.28 44.8609375,7.28 C44.1676042,7.28 43.5309375,7.4 42.9509375,7.64 C42.3709375,7.88 41.8809375,8.22666667 41.4809375,8.68 L41.4809375,8.68 L41.4809375,7.44 L38.5009375,7.44 L38.5009375,18.2 L41.6209375,18.2 Z M62.8009375,18.36 C64.4009375,18.36 65.4942708,17.86 66.0809375,16.86 L66.0809375,16.86 L66.0809375,18.2 L69.0009375,18.2 L69.0009375,12.06 C69.0009375,10.46 68.5542708,9.26333333 67.6609375,8.47 C66.7676042,7.67666667 65.4876042,7.28 63.8209375,7.28 C62.9542708,7.28 62.1109375,7.39333333 61.2909375,7.62 C60.4709375,7.84666667 59.7676042,8.16666667 59.1809375,8.58 L59.1809375,8.58 L60.3009375,10.76 C60.6876042,10.4533333 61.1576042,10.21 61.7109375,10.03 C62.2642708,9.85 62.8276042,9.76 63.4009375,9.76 C64.2276042,9.76 64.8476042,9.94333333 65.2609375,10.31 C65.6742708,10.6766667 65.8809375,11.2 65.8809375,11.88 L65.8809375,11.88 L63.4009375,11.88 C61.8276042,11.88 60.6642708,12.1666667 59.9109375,12.74 C59.1576042,13.3133333 58.7809375,14.1 58.7809375,15.1 C58.7809375,15.7266667 58.9409375,16.2866667 59.2609375,16.78 C59.5809375,17.2733333 60.0442708,17.66 60.6509375,17.94 C61.2576042,18.22 61.9742708,18.36 62.8009375,18.36 Z M63.5809375,16.26 C63.0342708,16.26 62.6042708,16.1433333 62.2909375,15.91 C61.9776042,15.6766667 61.8209375,15.36 61.8209375,14.96 C61.8209375,14.12 62.4609375,13.7 63.7409375,13.7 L63.7409375,13.7 L65.8809375,13.7 L65.8809375,14.8 C65.7076042,15.28 65.4142708,15.6433333 65.0009375,15.89 C64.5876042,16.1366667 64.1142708,16.26 63.5809375,16.26 Z M80.6009375,18.2 L80.6009375,12.88 C80.6009375,11.92 80.8342708,11.1966667 81.3009375,10.71 C81.7676042,10.2233333 82.3942708,9.98 83.1809375,9.98 C83.8876042,9.98 84.4276042,10.19 84.8009375,10.61 C85.1742708,11.03 85.3609375,11.6666667 85.3609375,12.52 L85.3609375,12.52 L85.3609375,18.2 L88.4809375,18.2 L88.4809375,12.04 C88.4809375,10.4666667 88.0709375,9.28 87.2509375,8.48 C86.4309375,7.68 85.3542708,7.28 84.0209375,7.28 C83.2876042,7.28 82.6142708,7.40333333 82.0009375,7.65 C81.3876042,7.89666667 80.8742708,8.24666667 80.4609375,8.7 L80.4609375,8.7 L80.4609375,7.44 L77.4809375,7.44 L77.4809375,18.2 L80.6009375,18.2 Z M96.4209375,18.36 C97.5542708,18.36 98.5676042,18.1233333 99.4609375,17.65 C100.354271,17.1766667 101.054271,16.52 101.560937,15.68 C102.067604,14.84 102.320937,13.8866667 102.320937,12.82 C102.320937,11.7533333 102.067604,10.8 101.560937,9.96 C101.054271,9.12 100.354271,8.46333333 99.4609375,7.99 C98.5676042,7.51666667 97.5542708,7.28 96.4209375,7.28 C95.2876042,7.28 94.2709375,7.51666667 93.3709375,7.99 C92.4709375,8.46333333 91.7676042,9.12 91.2609375,9.96 C90.7542708,10.8 90.5009375,11.7533333 90.5009375,12.82 C90.5009375,13.8866667 90.7542708,14.84 91.2609375,15.68 C91.7676042,16.52 92.4709375,17.1766667 93.3709375,17.65 C94.2709375,18.1233333 95.2876042,18.36 96.4209375,18.36 Z M96.4209375,15.8 C95.6209375,15.8 94.9609375,15.53 94.4409375,14.99 C93.9209375,14.45 93.6609375,13.7266667 93.6609375,12.82 C93.6609375,11.9133333 93.9209375,11.19 94.4409375,10.65 C94.9609375,10.11 95.6209375,9.84 96.4209375,9.84 C97.2209375,9.84 97.8776042,10.11 98.3909375,10.65 C98.9042708,11.19 99.1609375,11.9133333 99.1609375,12.82 C99.1609375,13.7266667 98.9042708,14.45 98.3909375,14.99 C97.8776042,15.53 97.2209375,15.8 96.4209375,15.8 Z M108.940938,18.36 C109.607604,18.36 110.227604,18.2366667 110.800937,17.99 C111.374271,17.7433333 111.867604,17.3866667 112.280937,16.92 L112.280937,16.92 L112.280937,18.2 L115.240937,18.2 L115.240937,7.44 L112.120937,7.44 L112.120937,12.76 C112.120937,13.72 111.894271,14.4433333 111.440938,14.93 C110.987604,15.4166667 110.387604,15.66 109.640937,15.66 C108.187604,15.66 107.460937,14.7933333 107.460937,13.06 L107.460937,13.06 L107.460937,7.44 L104.340937,7.44 L104.340937,13.52 C104.340937,15.12 104.754271,16.3266667 105.580937,17.14 C106.407604,17.9533333 107.527604,18.36 108.940938,18.36 Z M124.280937,18.2 L128.820938,7.44 L125.820937,7.44 L122.740937,14.76 L119.760937,7.44 L116.540937,7.44 L121.060937,18.2 L124.280937,18.2 Z M135.440937,18.36 C137.387604,18.36 138.867604,17.78 139.880937,16.62 L139.880937,16.62 L138.220937,14.82 C137.847604,15.18 137.444271,15.4433333 137.010937,15.61 C136.577604,15.7766667 136.080938,15.86 135.520938,15.86 C134.707604,15.86 134.027604,15.6666667 133.480937,15.28 C132.934271,14.8933333 132.587604,14.3666667 132.440937,13.7 L132.440937,13.7 L140.580938,13.7 C140.620937,13.18 140.640938,12.9 140.640938,12.86 C140.640938,11.74 140.397604,10.7566667 139.910937,9.91 C139.424271,9.06333333 138.754271,8.41333333 137.900937,7.96 C137.047604,7.50666667 136.094271,7.28 135.040937,7.28 C133.960938,7.28 132.984271,7.51666667 132.110937,7.99 C131.237604,8.46333333 130.550937,9.12333333 130.050937,9.97 C129.550937,10.8166667 129.300937,11.7666667 129.300937,12.82 C129.300937,13.8866667 129.554271,14.84 130.060937,15.68 C130.567604,16.52 131.287604,17.1766667 132.220937,17.65 C133.154271,18.1233333 134.227604,18.36 135.440937,18.36 Z M137.700938,11.88 L132.400937,11.88 C132.507604,11.1866667 132.800937,10.64 133.280937,10.24 C133.760937,9.84 134.354271,9.64 135.060937,9.64 C135.754271,9.64 136.340937,9.84333333 136.820937,10.25 C137.300937,10.6566667 137.594271,11.2 137.700938,11.88 L137.700938,11.88 Z M145.840937,18.2 L145.840937,3.36 L142.720937,3.36 L142.720937,18.2 L145.840937,18.2 Z M151.860937,18.2 L151.860937,3.36 L148.740937,3.36 L148.740937,18.2 L151.860937,18.2 Z M160.100937,18.36 C162.047604,18.36 163.527604,17.78 164.540937,16.62 L164.540937,16.62 L162.880937,14.82 C162.507604,15.18 162.104271,15.4433333 161.670937,15.61 C161.237604,15.7766667 160.740938,15.86 160.180937,15.86 C159.367604,15.86 158.687604,15.6666667 158.140937,15.28 C157.594271,14.8933333 157.247604,14.3666667 157.100937,13.7 L157.100937,13.7 L165.240937,13.7 C165.280937,13.18 165.300937,12.9 165.300937,12.86 C165.300937,11.74 165.057604,10.7566667 164.570937,9.91 C164.084271,9.06333333 163.414271,8.41333333 162.560937,7.96 C161.707604,7.50666667 160.754271,7.28 159.700937,7.28 C158.620937,7.28 157.644271,7.51666667 156.770938,7.99 C155.897604,8.46333333 155.210938,9.12333333 154.710938,9.97 C154.210938,10.8166667 153.960938,11.7666667 153.960938,12.82 C153.960938,13.8866667 154.214271,14.84 154.720937,15.68 C155.227604,16.52 155.947604,17.1766667 156.880937,17.65 C157.814271,18.1233333 158.887604,18.36 160.100937,18.36 Z M162.360938,11.88 L157.060937,11.88 C157.167604,11.1866667 157.460938,10.64 157.940937,10.24 C158.420937,9.84 159.014271,9.64 159.720937,9.64 C160.414271,9.64 161.000937,9.84333333 161.480937,10.25 C161.960938,10.6566667 162.254271,11.2 162.360938,11.88 L162.360938,11.88 Z M42.8681375,37.5952 C44.8201375,37.5952 46.1540042,36.9852 46.8697375,35.7652 L46.8697375,35.7652 L46.8697375,37.4 L50.4321375,37.4 L50.4321375,29.9092 C50.4321375,27.9572 49.8872042,26.4972667 48.7973375,25.5294 C47.7074708,24.5615333 46.1458708,24.0776 44.1125375,24.0776 C43.0552042,24.0776 42.0263375,24.2158667 41.0259375,24.4924 C40.0255375,24.7689333 39.1674708,25.1593333 38.4517375,25.6636 L38.4517375,25.6636 L39.8181375,28.3232 C40.2898708,27.9490667 40.8632708,27.6522 41.5383375,27.4326 C42.2134042,27.213 42.9006708,27.1032 43.6001375,27.1032 C44.6086708,27.1032 45.3650708,27.3268667 45.8693375,27.7742 C46.3736042,28.2215333 46.6257375,28.86 46.6257375,29.6896 L46.6257375,29.6896 L43.6001375,29.6896 C41.6806708,29.6896 40.2614042,30.0393333 39.3423375,30.7388 C38.4232708,31.4382667 37.9637375,32.398 37.9637375,33.618 C37.9637375,34.3825333 38.1589375,35.0657333 38.5493375,35.6676 C38.9397375,36.2694667 39.5050042,36.7412 40.2451375,37.0828 C40.9852708,37.4244 41.8596042,37.5952 42.8681375,37.5952 Z M43.8197375,35.0332 C43.1528042,35.0332 42.6282042,34.8908667 42.2459375,34.6062 C41.8636708,34.3215333 41.6725375,33.9352 41.6725375,33.4472 C41.6725375,32.4224 42.4533375,31.91 44.0149375,31.91 L44.0149375,31.91 L46.6257375,31.91 L46.6257375,33.252 C46.4142708,33.8376 46.0564042,34.2808667 45.5521375,34.5818 C45.0478708,34.8827333 44.4704042,35.0332 43.8197375,35.0332 Z M58.2889375,37.5952 C59.5740042,37.5952 60.6842042,37.4203333 61.6195375,37.0706 C62.5548708,36.7208667 63.2665375,36.2288 63.7545375,35.5944 C64.2425375,34.96 64.4865375,34.2361333 64.4865375,33.4228 C64.4865375,32.4630667 64.2344042,31.7148 63.7301375,31.178 C63.2258708,30.6412 62.6321375,30.2711333 61.9489375,30.0678 C61.2657375,29.8644667 60.3873375,29.6733333 59.3137375,29.4944 C58.3540042,29.348 57.6545375,29.1934667 57.2153375,29.0308 C56.7761375,28.8681333 56.5565375,28.5834667 56.5565375,28.1768 C56.5565375,27.8189333 56.7598708,27.5261333 57.1665375,27.2984 C57.5732042,27.0706667 58.1832042,26.9568 58.9965375,26.9568 C60.3629375,26.9568 61.6236042,27.2821333 62.7785375,27.9328 L62.7785375,27.9328 L64.0473375,25.2244 C63.4454708,24.8665333 62.6850042,24.5859333 61.7659375,24.3826 C60.8468708,24.1792667 59.9237375,24.0776 58.9965375,24.0776 C57.7440042,24.0776 56.6582042,24.2565333 55.7391375,24.6144 C54.8200708,24.9722667 54.1206042,25.4724667 53.6407375,26.115 C53.1608708,26.7575333 52.9209375,27.4936 52.9209375,28.3232 C52.9209375,29.3154667 53.1771375,30.08 53.6895375,30.6168 C54.2019375,31.1536 54.8078708,31.5277333 55.5073375,31.7392 C56.2068042,31.9506667 57.0933375,32.1377333 58.1669375,32.3004 C59.0778708,32.4142667 59.7529375,32.5525333 60.1921375,32.7152 C60.6313375,32.8778667 60.8509375,33.1462667 60.8509375,33.5204 C60.8509375,34.3174667 60.0457375,34.716 58.4353375,34.716 C57.6382708,34.716 56.8249375,34.5980667 55.9953375,34.3622 C55.1657375,34.1263333 54.4581375,33.8213333 53.8725375,33.4472 L53.8725375,33.4472 L52.6037375,36.18 C53.2218708,36.5866667 54.0514708,36.9242 55.0925375,37.1926 C56.1336042,37.461 57.1990708,37.5952 58.2889375,37.5952 Z M71.2453375,37.5952 C72.5304042,37.5952 73.6406042,37.4203333 74.5759375,37.0706 C75.5112708,36.7208667 76.2229375,36.2288 76.7109375,35.5944 C77.1989375,34.96 77.4429375,34.2361333 77.4429375,33.4228 C77.4429375,32.4630667 77.1908042,31.7148 76.6865375,31.178 C76.1822708,30.6412 75.5885375,30.2711333 74.9053375,30.0678 C74.2221375,29.8644667 73.3437375,29.6733333 72.2701375,29.4944 C71.3104042,29.348 70.6109375,29.1934667 70.1717375,29.0308 C69.7325375,28.8681333 69.5129375,28.5834667 69.5129375,28.1768 C69.5129375,27.8189333 69.7162708,27.5261333 70.1229375,27.2984 C70.5296042,27.0706667 71.1396042,26.9568 71.9529375,26.9568 C73.3193375,26.9568 74.5800042,27.2821333 75.7349375,27.9328 L75.7349375,27.9328 L77.0037375,25.2244 C76.4018708,24.8665333 75.6414042,24.5859333 74.7223375,24.3826 C73.8032708,24.1792667 72.8801375,24.0776 71.9529375,24.0776 C70.7004042,24.0776 69.6146042,24.2565333 68.6955375,24.6144 C67.7764708,24.9722667 67.0770042,25.4724667 66.5971375,26.115 C66.1172708,26.7575333 65.8773375,27.4936 65.8773375,28.3232 C65.8773375,29.3154667 66.1335375,30.08 66.6459375,30.6168 C67.1583375,31.1536 67.7642708,31.5277333 68.4637375,31.7392 C69.1632042,31.9506667 70.0497375,32.1377333 71.1233375,32.3004 C72.0342708,32.4142667 72.7093375,32.5525333 73.1485375,32.7152 C73.5877375,32.8778667 73.8073375,33.1462667 73.8073375,33.5204 C73.8073375,34.3174667 73.0021375,34.716 71.3917375,34.716 C70.5946708,34.716 69.7813375,34.5980667 68.9517375,34.3622 C68.1221375,34.1263333 67.4145375,33.8213333 66.8289375,33.4472 L66.8289375,33.4472 L65.5601375,36.18 C66.1782708,36.5866667 67.0078708,36.9242 68.0489375,37.1926 C69.0900042,37.461 70.1554708,37.5952 71.2453375,37.5952 Z M85.3241375,37.5952 C86.1374708,37.5952 86.8938708,37.4447333 87.5933375,37.1438 C88.2928042,36.8428667 88.8946708,36.4077333 89.3989375,35.8384 L89.3989375,35.8384 L89.3989375,37.4 L93.0101375,37.4 L93.0101375,24.2728 L89.2037375,24.2728 L89.2037375,30.7632 C89.2037375,31.9344 88.9272042,32.8168667 88.3741375,33.4106 C87.8210708,34.0043333 87.0890708,34.3012 86.1781375,34.3012 C84.4050708,34.3012 83.5185375,33.2438667 83.5185375,31.1292 L83.5185375,31.1292 L83.5185375,24.2728 L79.7121375,24.2728 L79.7121375,31.6904 C79.7121375,33.6424 80.2164042,35.1145333 81.2249375,36.1068 C82.2334708,37.0990667 83.5998708,37.5952 85.3241375,37.5952 Z M100.354538,37.4 L100.354538,31.2024 C100.354538,29.9824 100.663604,29.0674 101.281737,28.4574 C101.899871,27.8474 102.753871,27.5424 103.843737,27.5424 C103.990138,27.5424 104.274804,27.5586667 104.697738,27.5912 L104.697738,27.5912 L104.697738,24.0776 C103.689204,24.0776 102.798604,24.2402667 102.025937,24.5656 C101.253271,24.8909333 100.639204,25.3708 100.183738,26.0052 L100.183738,26.0052 L100.183738,24.2728 L96.5481375,24.2728 L96.5481375,37.4 L100.354538,37.4 Z M111.114937,37.5952 C113.066937,37.5952 114.400804,36.9852 115.116538,35.7652 L115.116538,35.7652 L115.116538,37.4 L118.678938,37.4 L118.678938,29.9092 C118.678938,27.9572 118.134004,26.4972667 117.044137,25.5294 C115.954271,24.5615333 114.392671,24.0776 112.359337,24.0776 C111.302004,24.0776 110.273137,24.2158667 109.272737,24.4924 C108.272337,24.7689333 107.414271,25.1593333 106.698538,25.6636 L106.698538,25.6636 L108.064937,28.3232 C108.536671,27.9490667 109.110071,27.6522 109.785138,27.4326 C110.460204,27.213 111.147471,27.1032 111.846937,27.1032 C112.855471,27.1032 113.611871,27.3268667 114.116137,27.7742 C114.620404,28.2215333 114.872538,28.86 114.872538,29.6896 L114.872538,29.6896 L111.846937,29.6896 C109.927471,29.6896 108.508204,30.0393333 107.589138,30.7388 C106.670071,31.4382667 106.210538,32.398 106.210538,33.618 C106.210538,34.3825333 106.405738,35.0657333 106.796138,35.6676 C107.186538,36.2694667 107.751804,36.7412 108.491937,37.0828 C109.232071,37.4244 110.106404,37.5952 111.114937,37.5952 Z M112.066537,35.0332 C111.399604,35.0332 110.875004,34.8908667 110.492737,34.6062 C110.110471,34.3215333 109.919337,33.9352 109.919337,33.4472 C109.919337,32.4224 110.700137,31.91 112.261737,31.91 L112.261737,31.91 L114.872538,31.91 L114.872538,33.252 C114.661071,33.8376 114.303204,34.2808667 113.798938,34.5818 C113.294671,34.8827333 112.717204,35.0332 112.066537,35.0332 Z M125.925737,37.4 L125.925737,30.9096 C125.925737,29.7384 126.210404,28.8559333 126.779737,28.2622 C127.349071,27.6684667 128.113604,27.3716 129.073337,27.3716 C129.935471,27.3716 130.594271,27.6278 131.049737,28.1402 C131.505204,28.6526 131.732937,29.4293333 131.732937,30.4704 L131.732937,30.4704 L131.732937,37.4 L135.539337,37.4 L135.539337,29.8848 C135.539337,27.9653333 135.039137,26.5176 134.038737,25.5416 C133.038337,24.5656 131.724804,24.0776 130.098138,24.0776 C129.203471,24.0776 128.382004,24.2280667 127.633737,24.529 C126.885471,24.8299333 126.259204,25.2569333 125.754937,25.81 L125.754937,25.81 L125.754937,24.2728 L122.119337,24.2728 L122.119337,37.4 L125.925737,37.4 Z M145.323738,37.5952 C146.706404,37.5952 147.914204,37.3024 148.947137,36.7168 C149.980071,36.1312 150.732404,35.3178667 151.204138,34.2768 L151.204138,34.2768 L148.251738,32.6664 C147.584804,33.8701333 146.600671,34.472 145.299338,34.472 C144.307071,34.472 143.485604,34.1466667 142.834937,33.496 C142.184271,32.8453333 141.858937,31.9588 141.858937,30.8364 C141.858937,29.714 142.184271,28.8274667 142.834937,28.1768 C143.485604,27.5261333 144.307071,27.2008 145.299338,27.2008 C146.584404,27.2008 147.568538,27.8026667 148.251738,29.0064 L148.251738,29.0064 L151.204138,27.4204 C150.732404,26.3468 149.980071,25.5212667 148.947137,24.9438 C147.914204,24.3663333 146.706404,24.0776 145.323738,24.0776 C143.924804,24.0776 142.668204,24.3663333 141.553938,24.9438 C140.439671,25.5212667 139.569404,26.3224 138.943138,27.3472 C138.316871,28.372 138.003737,29.5350667 138.003737,30.8364 C138.003737,32.1377333 138.316871,33.3008 138.943138,34.3256 C139.569404,35.3504 140.439671,36.1515333 141.553938,36.729 C142.668204,37.3064667 143.924804,37.5952 145.323738,37.5952 Z M159.914938,37.5952 C162.289871,37.5952 164.095471,36.8876 165.331738,35.4724 L165.331738,35.4724 L163.306538,33.2764 C162.851071,33.7156 162.359004,34.0368667 161.830338,34.2402 C161.301671,34.4435333 160.695738,34.5452 160.012538,34.5452 C159.020271,34.5452 158.190671,34.3093333 157.523738,33.8376 C156.856804,33.3658667 156.433871,32.7233333 156.254938,31.91 L156.254938,31.91 L166.185737,31.91 C166.234537,31.2756 166.258938,30.934 166.258938,30.8852 C166.258938,29.5188 165.962071,28.3191333 165.368337,27.2862 C164.774604,26.2532667 163.957204,25.4602667 162.916138,24.9072 C161.875071,24.3541333 160.712004,24.0776 159.426938,24.0776 C158.109337,24.0776 156.917804,24.3663333 155.852338,24.9438 C154.786871,25.5212667 153.949138,26.3264667 153.339138,27.3594 C152.729138,28.3923333 152.424138,29.5513333 152.424138,30.8364 C152.424138,32.1377333 152.733204,33.3008 153.351337,34.3256 C153.969471,35.3504 154.847871,36.1515333 155.986537,36.729 C157.125204,37.3064667 158.434671,37.5952 159.914938,37.5952 Z M162.672138,29.6896 L156.206138,29.6896 C156.336271,28.8437333 156.694138,28.1768 157.279738,27.6888 C157.865338,27.2008 158.589204,26.9568 159.451338,26.9568 C160.297204,26.9568 161.012938,27.2048667 161.598538,27.701 C162.184138,28.1971333 162.542004,28.86 162.672138,29.6896 L162.672138,29.6896 Z" id="manouvelleassurance" fill="#01C6A3" fill-rule="nonzero"></path>
        <g id="Combined-Shape-2" transform="translate(0.000000, 2.312775)" fill="#01C6A3">
            <path d="M17.599998,0.978769422 L32.3975298,12.7783647 C32.7782507,13.0819526 33,13.5423944 33,14.029338 L33,34.8872247 C33,35.3290525 32.6418278,35.6872247 32.2,35.6872247 L0.8,35.6872247 C0.3581722,35.6872247 -1.16713703e-15,35.3290525 0,34.8872247 L0,14.0356877 C-7.26209407e-16,13.5451332 0.225034439,13.081689 0.610537947,12.7783234 L15.6130062,0.972378511 C16.1965689,0.513153452 17.0194014,0.51579999 17.599998,0.978769422 Z M10.9730002,17.1023416 L7.53947779,18.048804 L7.64337908,18.4058026 C9.06894594,23.1119897 12.1011657,25.6630861 16.5,25.6630861 C21.0093541,25.6630861 24.0807473,22.9821003 25.4551254,18.04736 L25.4551254,18.04736 L22.0207973,17.1037856 L21.9243044,17.4353492 C20.934785,20.6901416 19.204945,22.123935 16.5,22.123935 C13.7043412,22.123935 11.948173,20.5922222 10.9730002,17.1023416 L10.9730002,17.1023416 Z" id="Combined-Shape"></path>
        </g>
    </g>
</svg>