<svg width="135" height="160" viewBox="0 0 135 122" fill="none" xmlns="http://www.w3.org/2000/svg">
<path d="M0.638772 98.1326C0.638772 101.082 2.44236 103.017 5.12897 103.017C7.36467 103.017 9.1119 101.683 9.50643 99.7107H7.38346C7.15801 100.519 6.275 101.082 5.16654 101.082C3.77627 101.082 2.91205 100.274 2.85569 98.7901H9.46886V98.095C9.46886 95.1454 7.83435 93.2103 5.12897 93.2103C2.46115 93.2103 0.638772 95.1454 0.638772 98.1326ZM2.89326 97.3247C2.91205 95.9157 3.79506 95.1078 5.05382 95.1078C6.29379 95.1078 7.17679 95.8781 7.19558 97.3247H2.89326ZM11.9927 98.7901H20.4658V96.7423H11.9927V98.7901ZM25.6867 103.017C27.1521 103.017 28.2605 102.36 28.6551 101.402L28.8242 102.773H30.8344V97.1368C30.8344 94.6757 29.4066 93.2103 26.7951 93.2103C24.3903 93.2103 22.737 94.5442 22.7558 96.5356H24.7097C24.6909 95.5775 25.4236 94.9951 26.6824 94.9951C27.8096 94.9951 28.5987 95.4836 28.5987 96.7611V96.9678L25.9497 97.1744C23.8643 97.3435 22.5116 98.3205 22.5116 100.124C22.5116 101.852 23.6952 103.017 25.6867 103.017ZM26.4382 101.289C25.4048 101.289 24.8412 100.838 24.8412 100.03C24.8412 99.2786 25.3297 98.8277 26.6824 98.6962L28.6175 98.5271V99.0156C28.6175 100.744 27.4151 101.289 26.4382 101.289ZM32.4133 99.9925C32.4884 101.834 33.9163 103.017 36.1332 103.017C38.3125 103.017 39.7967 101.852 39.7967 100.049C39.7967 98.715 38.9701 97.8132 37.4483 97.4374L35.8138 97.0429C35.1187 96.855 34.649 96.6108 34.649 96.0096C34.649 95.3708 35.1562 94.9199 35.9829 94.9199C36.8471 94.9199 37.4107 95.4084 37.4107 96.2163H39.4961C39.421 94.3751 38.0495 93.2103 36.0393 93.2103C34.0478 93.2103 32.5636 94.3751 32.5636 96.1411C32.5636 97.3435 33.2587 98.3392 35.0435 98.8089L36.6592 99.2222C37.2604 99.3913 37.6362 99.6731 37.6362 100.199C37.6362 100.932 36.9411 101.27 36.0956 101.27C35.0811 101.27 34.4987 100.8 34.4987 99.9925H32.4133ZM40.8896 99.9925C40.9648 101.834 42.3926 103.017 44.6096 103.017C46.7889 103.017 48.2731 101.852 48.2731 100.049C48.2731 98.715 47.4465 97.8132 45.9247 97.4374L44.2902 97.0429C43.595 96.855 43.1253 96.6108 43.1253 96.0096C43.1253 95.3708 43.6326 94.9199 44.4593 94.9199C45.3235 94.9199 45.8871 95.4084 45.8871 96.2163H47.9725C47.8973 94.3751 46.5259 93.2103 44.5156 93.2103C42.5241 93.2103 41.0399 94.3751 41.0399 96.1411C41.0399 97.3435 41.7351 98.3392 43.5199 98.8089L45.1356 99.2222C45.7368 99.3913 46.1125 99.6731 46.1125 100.199C46.1125 100.932 45.4174 101.27 44.572 101.27C43.5575 101.27 42.975 100.8 42.975 99.9925H40.8896ZM53.591 103.017C54.8497 103.017 56.0521 102.435 56.5969 101.571L56.7472 102.773H58.889V93.4921H56.5969V98.358C56.5969 100.03 55.9582 100.969 54.4552 100.969C53.2904 100.969 52.4825 100.406 52.4825 98.4895V93.4921H50.1904V99.2974C50.1904 101.514 51.3928 103.017 53.591 103.017ZM67.2259 93.4545C65.8169 93.1351 64.2199 93.4545 63.6563 94.5818L63.5248 93.5109H61.4206V102.773H63.7127V98.2641C63.7127 96.4605 64.6708 95.446 66.3241 95.446H67.2259V93.4545ZM71.4443 103.017C72.9097 103.017 74.0182 102.36 74.4127 101.402L74.5818 102.773H76.5921V97.1368C76.5921 94.6757 75.1642 93.2103 72.5528 93.2103C70.148 93.2103 68.4947 94.5442 68.5135 96.5356H70.4674C70.4486 95.5775 71.1813 94.9951 72.44 94.9951C73.5673 94.9951 74.3563 95.4836 74.3563 96.7611V96.9678L71.7073 97.1744C69.6219 97.3435 68.2692 98.3205 68.2692 100.124C68.2692 101.852 69.4528 103.017 71.4443 103.017ZM72.1958 101.289C71.1625 101.289 70.5989 100.838 70.5989 100.03C70.5989 99.2786 71.0873 98.8277 72.44 98.6962L74.3751 98.5271V99.0156C74.3751 100.744 73.1727 101.289 72.1958 101.289ZM81.2708 102.773V97.7756C81.2708 95.8405 82.5484 95.2957 83.5441 95.2957C84.3332 95.2957 85.498 95.6151 85.498 97.6065V102.773H87.7713V97.0617C87.7713 94.7508 86.6816 93.2103 84.258 93.2103C82.9993 93.2103 81.8908 93.7363 81.2896 94.6945L81.1018 93.4921H78.9788V102.773H81.2708ZM89.5304 98.1138C89.5304 101.026 91.3716 103.017 93.983 103.017C96.3878 103.017 98.1538 101.552 98.4356 99.3725H96.2563C95.9933 100.425 95.1479 100.969 94.1333 100.969C92.7055 100.969 91.8225 99.8986 91.8225 98.1138C91.8225 96.3102 92.7243 95.2393 94.1521 95.2393C95.1479 95.2393 95.9933 95.7654 96.2563 96.855H98.4169C98.1726 94.6757 96.5005 93.2103 94.1709 93.2103C91.4467 93.2103 89.5304 95.2017 89.5304 98.1138ZM99.6213 98.1326C99.6213 101.082 101.425 103.017 104.112 103.017C106.347 103.017 108.094 101.683 108.489 99.7107H106.366C106.141 100.519 105.258 101.082 104.149 101.082C102.759 101.082 101.895 100.274 101.838 98.7901H108.451V98.095C108.451 95.1454 106.817 93.2103 104.112 93.2103C101.444 93.2103 99.6213 95.1454 99.6213 98.1326ZM101.876 97.3247C101.895 95.9157 102.778 95.1078 104.036 95.1078C105.276 95.1078 106.159 95.8781 106.178 97.3247H101.876ZM110.899 103.074C111.725 103.074 112.42 102.397 112.42 101.589C112.42 100.763 111.725 100.068 110.899 100.068C110.072 100.068 109.377 100.763 109.377 101.589C109.377 102.397 110.072 103.074 110.899 103.074ZM113.905 93.4921V95.3896H115.22L115.239 102.773H117.531V95.3896H119.729V93.4921H117.531V92.3648C117.531 91.4443 117.794 90.8431 118.959 90.8431H119.767V88.8892C119.372 88.814 118.94 88.7952 118.583 88.7952C116.573 88.7952 115.22 89.8473 115.22 92.3648V93.4921H113.905ZM127.148 93.4545C125.738 93.1351 124.142 93.4545 123.578 94.5818L123.446 93.5109H121.342V102.773H123.634V98.2641C123.634 96.4605 124.592 95.446 126.246 95.446H127.148V93.4545Z" fill="#00364B"/>
<path d="M1.61152 118.208H3.83028C4.92006 118.208 5.64919 117.659 5.64919 116.734C5.64919 116.06 5.2807 115.597 4.70837 115.37C5.24934 115.15 5.57863 114.703 5.57863 114.061C5.57863 113.167 4.93574 112.547 3.78324 112.547H1.61152V118.208ZM3.7754 113.206C4.45749 113.206 4.83381 113.629 4.83381 114.155C4.83381 114.68 4.46533 115.072 3.78324 115.072H2.35633V113.206H3.7754ZM3.84596 115.683C4.44965 115.683 4.89654 116.013 4.90438 116.609C4.90438 117.189 4.48885 117.542 3.84596 117.542H2.35633V115.683H3.84596ZM7.37984 112.54H6.6115V118.208H7.37984V112.54ZM12.1209 118.208V117.479H9.43175V115.699H11.8543V115.017H9.43175V113.269H12.1209V112.54H8.66341V118.208H12.1209ZM14.1557 118.208V113.778L17.0566 118.208H17.8249V112.54H17.0566V116.954L14.1557 112.54H13.3874V118.208H14.1557ZM23.4764 116.193C24.6132 116.193 25.3031 115.409 25.3031 114.359C25.3031 113.253 24.6132 112.54 23.4842 112.54H21.2811V118.208H22.0495V116.193H23.4764ZM23.3588 113.237C24.1114 113.237 24.5034 113.708 24.5034 114.335C24.5034 114.994 24.1114 115.503 23.3352 115.503H22.0495V113.237H23.3588ZM26.9574 112.54H26.1812V118.208H29.2702V117.518H26.9574V112.54ZM29.9314 116.224C29.9314 117.683 31.029 118.31 32.1423 118.31C33.2869 118.31 34.3375 117.636 34.3375 116.224V112.54H33.5692V116.201C33.5692 117.142 32.8871 117.573 32.1423 117.573C31.4288 117.573 30.7075 117.22 30.7075 116.201V112.54H29.9314V116.224ZM35.2616 114.068C35.2616 114.782 35.685 115.339 36.6493 115.597L37.598 115.848C38.0841 115.974 38.382 116.232 38.382 116.695C38.382 117.244 37.9116 117.612 37.1668 117.612C36.4455 117.612 35.9751 117.267 35.9594 116.726H35.1911C35.2459 117.691 36.0221 118.302 37.1354 118.302C38.3428 118.302 39.1503 117.651 39.1503 116.671C39.1503 115.919 38.6799 115.362 37.7548 115.127L36.8061 114.876C36.3279 114.751 36.0221 114.5 36.0221 114.037C36.0221 113.488 36.4455 113.12 37.1276 113.12C37.7469 113.12 38.1782 113.433 38.2252 114.021H38.9935C38.923 113.081 38.2409 112.438 37.1668 112.438C36.0143 112.438 35.2616 113.104 35.2616 114.068ZM47.3871 115.37C47.3871 113.669 46.2816 112.438 44.6587 112.438C43.0358 112.438 41.9382 113.669 41.9382 115.37C41.9382 117.079 43.0279 118.302 44.6509 118.302C45.2075 118.302 45.7014 118.161 46.117 117.902L46.5952 118.435L47.2381 118.13L46.6423 117.455C47.1127 116.938 47.3871 116.209 47.3871 115.37ZM45.3721 116.021L44.7214 116.334L45.5995 117.314C45.3251 117.471 45.0115 117.549 44.6587 117.549C43.4984 117.549 42.7379 116.679 42.7379 115.37C42.7379 114.061 43.5062 113.19 44.6587 113.19C45.8112 113.19 46.5795 114.061 46.5795 115.37C46.5795 115.981 46.4149 116.491 46.117 116.867L45.3721 116.021ZM48.2607 116.224C48.2607 117.683 49.3584 118.31 50.4717 118.31C51.6163 118.31 52.6669 117.636 52.6669 116.224V112.54H51.8986V116.201C51.8986 117.142 51.2165 117.573 50.4717 117.573C49.7582 117.573 49.0369 117.22 49.0369 116.201V112.54H48.2607V116.224ZM54.8141 113.402C54.8141 112.971 54.5789 112.728 54.2652 112.728C53.9516 112.728 53.7478 112.932 53.7478 113.237C53.7478 113.535 53.9516 113.716 54.1868 113.716C54.2652 113.716 54.3201 113.7 54.375 113.669C54.3672 113.927 54.1555 114.155 53.8811 114.225V114.5C54.4299 114.429 54.8141 113.966 54.8141 113.402ZM55.8942 116.224C55.8942 117.683 56.9918 118.31 58.1051 118.31C59.2497 118.31 60.3003 117.636 60.3003 116.224V112.54H59.532V116.201C59.532 117.142 58.8499 117.573 58.1051 117.573C57.3916 117.573 56.6703 117.22 56.6703 116.201V112.54H55.8942V116.224ZM62.322 118.208V113.778L65.2229 118.208H65.9912V112.54H65.2229V116.954L62.322 112.54H61.5537V118.208H62.322ZM71.7995 118.294C73.0617 118.294 74.0888 117.565 74.3318 116.413H73.5165C73.2969 117.087 72.6305 117.542 71.8151 117.542C70.6862 117.542 69.9178 116.711 69.9178 115.37C69.9178 114.061 70.6548 113.19 71.8151 113.19C72.5835 113.19 73.2185 113.614 73.4381 114.366H74.2613C74.0496 113.206 73.0774 112.438 71.8387 112.438C70.2314 112.438 69.1103 113.614 69.1103 115.378C69.1103 117.173 70.2158 118.294 71.7995 118.294ZM80.3857 115.37C80.3857 113.669 79.2802 112.438 77.6573 112.438C76.0344 112.438 74.9368 113.669 74.9368 115.37C74.9368 117.079 76.0344 118.302 77.6495 118.302C79.2802 118.302 80.3857 117.071 80.3857 115.37ZM79.5782 115.37C79.5782 116.679 78.8098 117.549 77.6573 117.549C76.497 117.549 75.7443 116.679 75.7443 115.37C75.7443 114.061 76.5048 113.19 77.6573 113.19C78.8098 113.19 79.5782 114.061 79.5782 115.37ZM82.1132 118.208V115.785C82.1132 114.994 82.1054 114.398 82.0662 114.123L83.7048 118.208H84.4417L86.0725 114.108C86.049 114.429 86.0255 114.907 86.0255 115.966V118.208H86.7938V112.54H86.0255L84.0733 117.306L82.1132 112.54H81.3684V118.208H82.1132ZM90.3089 116.193C91.4457 116.193 92.1357 115.409 92.1357 114.359C92.1357 113.253 91.4457 112.54 90.3168 112.54H88.1137V118.208H88.882V116.193H90.3089ZM90.1913 113.237C90.944 113.237 91.336 113.708 91.336 114.335C91.336 114.994 90.944 115.503 90.1678 115.503H88.882V113.237H90.1913ZM92.7663 118.208L93.2837 116.797H95.6671L96.1689 118.208H96.9764L94.8988 112.54H94.052L91.9822 118.208H92.7663ZM94.397 113.763C94.4284 113.661 94.4754 113.52 94.4832 113.433C94.4989 113.52 94.546 113.661 94.5852 113.763L95.4397 116.146H93.5111L94.397 113.763ZM98.4984 118.208V115.958H99.9802L100.992 118.208H101.862L100.756 115.84C101.438 115.629 101.854 115.048 101.854 114.241C101.854 113.175 101.156 112.54 99.9018 112.54H97.7301V118.208H98.4984ZM98.4984 113.23H99.9018C100.647 113.23 101.039 113.629 101.039 114.249C101.039 114.86 100.662 115.268 99.9097 115.268H98.4984V113.23ZM103.079 118.208L103.597 116.797H105.98L106.482 118.208H107.29L105.212 112.54H104.365L102.295 118.208H103.079ZM104.71 113.763C104.742 113.661 104.789 113.52 104.796 113.433C104.812 113.52 104.859 113.661 104.898 113.763L105.753 116.146H103.824L104.71 113.763ZM106.981 113.261H108.761V118.208H109.537V113.261H111.309V112.54H106.981V113.261ZM115.536 118.208V117.479H112.846V115.699H115.269V115.017H112.846V113.269H115.536V112.54H112.078V118.208H115.536ZM116.586 116.224C116.586 117.683 117.684 118.31 118.797 118.31C119.942 118.31 120.992 117.636 120.992 116.224V112.54H120.224V116.201C120.224 117.142 119.542 117.573 118.797 117.573C118.084 117.573 117.362 117.22 117.362 116.201V112.54H116.586V116.224ZM123.014 118.208V115.958H124.496L125.507 118.208H126.378L125.272 115.84C125.954 115.629 126.37 115.048 126.37 114.241C126.37 113.175 125.672 112.54 124.418 112.54H122.246V118.208H123.014ZM123.014 113.23H124.418C125.162 113.23 125.554 113.629 125.554 114.249C125.554 114.86 125.178 115.268 124.425 115.268H123.014V113.23Z" fill="#00364B"/>
<path fill-rule="evenodd" clip-rule="evenodd" d="M18.7065 61.9921C14.1966 63.6129 15.4569 63.3388 10.0749 65.1843L0 58.6404C5.05083 56.9085 7.85112 55.9275 12.2672 54.3397C21.6472 50.9669 40.2359 47.1867 49.5963 45.474C73.062 41.1805 104.345 49.2884 120.436 53.7645L117.367 58.2775C87.9323 51.1418 72.927 50.0468 52.4009 53.4928C43.7551 54.9442 31.9868 57.2195 18.7065 61.9921Z" fill="url(#paint0_linear)"/>
<path fill-rule="evenodd" clip-rule="evenodd" d="M71.742 9.91675C102.869 9.91675 124.72 12.6601 124.72 36.0144C124.72 36.0144 92.3128 31.7268 80.3369 38.7356C50.7665 34.782 38.7142 43.2762 37.0101 53.7189C34.0709 71.7292 61.9991 78.5017 64.2947 63.0022C65.1281 57.375 61.4142 52.9944 56.1224 52.9944C52.3095 52.9944 48.8501 56.5142 49.7492 60.5003C50.4596 63.6498 55.1171 65.0259 56.8247 61.9164C57.902 59.9546 54.3738 60.5074 53.5169 59.6898C51.532 57.7959 54.4067 55.8767 56.1802 55.929C60.395 56.0532 62.5031 60.3922 60.5532 63.9432C56.8411 70.7037 46.1888 68.1378 45.2544 60.8586C44.409 54.2736 49.5324 48.4838 56.1224 48.4838C63.9042 48.4838 68.7299 55.1681 68.7299 63.0022C68.7299 72.0978 60.8524 78.4519 49.7492 78.8637C42.1277 79.1464 36.6125 77.3898 28.6969 72.0978C21.2965 67.1502 15.3818 56.0812 15.3818 44.7967C15.3818 21.4424 48.5437 9.91675 71.742 9.91675Z" fill="url(#paint1_linear)"/>
<path fill-rule="evenodd" clip-rule="evenodd" d="M126.227 36.0939C126.227 12.726 102.869 8.60571 71.742 8.60571C46.9693 8.60571 15.4731 21.3852 15.3821 44.6949C15.3819 44.7071 15.3819 44.7301 15.3818 44.7644L15.3818 44.8117C15.3818 44.7728 15.3819 44.7338 15.3821 44.6949C15.3825 44.6655 15.3835 44.6981 15.3863 44.7837C15.4133 45.6164 15.3455 51.4946 16.6746 54.0951C16.1842 40.2064 37.5543 37.8345 42.8079 37.8345C63.1953 37.8345 67.807 45.7733 71.5197 49.7652C74.4588 52.9253 80.1864 51.6209 79.4386 49.128C78.6907 46.6351 66.9532 37.8345 70.2979 37.8345C79.073 37.8345 86.6909 48.1677 89.2337 51.3586C91.7764 54.5495 98.3625 53.5446 96.7172 50.3537C95.7817 48.5394 88.7666 41.0506 89.1155 38.7881C111.809 39.964 126.227 36.0939 126.227 36.0939Z" fill="url(#paint2_linear)"/>
<path fill-rule="evenodd" clip-rule="evenodd" d="M82.7525 0.236284C118.193 -2.80141 126.792 24.2556 126.792 36.0008C123.8 39.6312 115.71 45.2157 89.1316 38.792C72.3738 21.7435 89.1316 13.2193 82.7525 0.236284Z" fill="url(#paint3_linear)"/>
<circle cx="106.111" cy="19.9069" r="7.46997" fill="white"/>
<circle cx="106.112" cy="19.9068" r="4.26162" fill="#00B487"/>
<circle cx="104.702" cy="17.5748" r="1.92966" fill="white"/>
<defs>
<linearGradient id="paint0_linear" x1="120.436" y1="54.721" x2="1.15076" y2="54.721" gradientUnits="userSpaceOnUse">
<stop stop-color="#004059"/>
<stop offset="1" stop-color="#207272"/>
</linearGradient>
<linearGradient id="paint1_linear" x1="61.0284" y1="21.295" x2="62.086" y2="80.2982" gradientUnits="userSpaceOnUse">
<stop stop-color="#B3FF7D"/>
<stop offset="1" stop-color="#13ACA2"/>
</linearGradient>
<linearGradient id="paint2_linear" x1="55.2201" y1="4.07973" x2="61.7231" y2="46.7932" gradientUnits="userSpaceOnUse">
<stop stop-color="#B3FF7D"/>
<stop offset="1" stop-color="#12B4A9"/>
</linearGradient>
<linearGradient id="paint3_linear" x1="101.772" y1="-1.62448" x2="88.1581" y2="34.3559" gradientUnits="userSpaceOnUse">
<stop stop-color="#B3FF7D"/>
<stop offset="1" stop-color="#13ACA2"/>
</linearGradient>
</defs>
</svg>
