<?xml version="1.0" encoding="utf-8"?>
<!-- Generator: Adobe Illustrator 24.1.2, SVG Export Plug-In . SVG Version: 6.00 Build 0)  -->
<svg version="1.1" id="Calque_1" xmlns="http://www.w3.org/2000/svg" xmlns:xlink="http://www.w3.org/1999/xlink" x="0px" y="0px"
	 viewBox="0 0 245.9 92.3" style="enable-background:new 0 0 245.9 92.3;" xml:space="preserve">
<style type="text/css">
	.st0{fill:#FFFFFF;}
	.st1{fill-rule:evenodd;clip-rule:evenodd;fill:#FF5047;}
	.st2{fill-rule:evenodd;clip-rule:evenodd;fill:#FFFFFF;}
</style>
<desc>Created with Lunacy</desc>
<g id="ICON-PLUG" transform="translate(1 1)">
	<g>
		<path id="Rectangle" class="st0" d="M15.1-1h58c0.3,0,0.5,0,0.8,0s0.5,0,0.8,0.1c0.3,0,0.5,0.1,0.8,0.1c0.3,0,0.5,0.1,0.8,0.1
			c0.3,0.1,0.5,0.1,0.8,0.2c0.3,0.1,0.5,0.1,0.8,0.2C78-0.2,78.3-0.1,78.5,0s0.5,0.2,0.7,0.3c0.2,0.1,0.5,0.2,0.7,0.3
			c0.2,0.1,0.5,0.2,0.7,0.4c0.2,0.1,0.5,0.3,0.7,0.4c0.2,0.1,0.4,0.3,0.7,0.4c0.2,0.1,0.4,0.3,0.6,0.5c0.2,0.2,0.4,0.3,0.6,0.5
			c0.2,0.2,0.4,0.3,0.6,0.5c0.2,0.2,0.4,0.4,0.6,0.5s0.4,0.4,0.5,0.6c0.2,0.2,0.3,0.4,0.5,0.6c0.2,0.2,0.3,0.4,0.5,0.6
			c0.2,0.2,0.3,0.4,0.5,0.6c0.1,0.2,0.3,0.4,0.4,0.7C87,7,87.1,7.3,87.2,7.5c0.1,0.2,0.2,0.5,0.4,0.7c0.1,0.2,0.2,0.5,0.3,0.7
			c0.1,0.2,0.2,0.5,0.3,0.7c0.1,0.2,0.2,0.5,0.2,0.7c0.1,0.3,0.1,0.5,0.2,0.8c0.1,0.3,0.1,0.5,0.2,0.8c0.1,0.3,0.1,0.5,0.1,0.8
			c0,0.3,0.1,0.5,0.1,0.8c0,0.3,0,0.5,0.1,0.8c0,0.3,0,0.5,0,0.8v58c0,0.3,0,0.5,0,0.8c0,0.3,0,0.5-0.1,0.8c0,0.3-0.1,0.5-0.1,0.8
			c0,0.3-0.1,0.5-0.1,0.8c-0.1,0.3-0.1,0.5-0.2,0.8c-0.1,0.3-0.1,0.5-0.2,0.8c-0.1,0.3-0.2,0.5-0.2,0.7c-0.1,0.2-0.2,0.5-0.3,0.7
			c-0.1,0.2-0.2,0.5-0.3,0.7c-0.1,0.2-0.2,0.5-0.4,0.7c-0.1,0.2-0.3,0.5-0.4,0.7c-0.1,0.2-0.3,0.4-0.4,0.7c-0.1,0.2-0.3,0.4-0.5,0.6
			s-0.3,0.4-0.5,0.6c-0.2,0.2-0.3,0.4-0.5,0.6c-0.2,0.2-0.4,0.4-0.5,0.6s-0.4,0.4-0.6,0.5c-0.2,0.2-0.4,0.3-0.6,0.5
			c-0.2,0.2-0.4,0.3-0.6,0.5s-0.4,0.3-0.6,0.5c-0.2,0.1-0.4,0.3-0.7,0.4c-0.2,0.1-0.5,0.3-0.7,0.4c-0.2,0.1-0.5,0.2-0.7,0.4
			c-0.2,0.1-0.5,0.2-0.7,0.3c-0.2,0.1-0.5,0.2-0.7,0.3c-0.2,0.1-0.5,0.2-0.7,0.2c-0.3,0.1-0.5,0.1-0.8,0.2c-0.3,0.1-0.5,0.1-0.8,0.2
			c-0.3,0.1-0.5,0.1-0.8,0.1c-0.3,0-0.5,0.1-0.8,0.1c-0.3,0-0.5,0-0.8,0.1c-0.3,0-0.5,0-0.8,0h-58c-0.3,0-0.5,0-0.8,0
			c-0.3,0-0.5,0-0.8-0.1c-0.3,0-0.5-0.1-0.8-0.1c-0.3,0-0.5-0.1-0.8-0.1c-0.3-0.1-0.5-0.1-0.8-0.2c-0.3-0.1-0.5-0.1-0.8-0.2
			c-0.3-0.1-0.5-0.2-0.7-0.2C9.5,88,9.3,87.9,9,87.8c-0.2-0.1-0.5-0.2-0.7-0.3c-0.2-0.1-0.5-0.2-0.7-0.4c-0.2-0.1-0.5-0.3-0.7-0.4
			c-0.2-0.1-0.4-0.3-0.7-0.4C6,86.2,5.8,86,5.6,85.9c-0.2-0.2-0.4-0.3-0.6-0.5c-0.2-0.2-0.4-0.3-0.6-0.5c-0.2-0.2-0.4-0.4-0.6-0.5
			c-0.2-0.2-0.4-0.4-0.5-0.6c-0.2-0.2-0.3-0.4-0.5-0.6c-0.2-0.2-0.3-0.4-0.5-0.6c-0.2-0.2-0.3-0.4-0.5-0.6c-0.1-0.2-0.3-0.4-0.4-0.7
			C1.3,81,1.2,80.8,1,80.6c-0.1-0.2-0.2-0.5-0.4-0.7c-0.1-0.2-0.2-0.5-0.3-0.7c-0.1-0.2-0.2-0.5-0.3-0.7s-0.2-0.5-0.2-0.7
			c-0.1-0.3-0.1-0.5-0.2-0.8c-0.1-0.3-0.1-0.5-0.2-0.8c-0.1-0.3-0.1-0.5-0.1-0.8c0-0.3-0.1-0.5-0.1-0.8c0-0.3,0-0.5-0.1-0.8
			s0-0.5,0-0.8V15c0-0.3,0-0.5,0-0.8c0-0.3,0-0.5,0.1-0.8c0-0.3,0.1-0.5,0.1-0.8c0-0.3,0.1-0.5,0.1-0.8c0.1-0.3,0.1-0.5,0.2-0.8
			c0.1-0.3,0.1-0.5,0.2-0.8c0.1-0.3,0.2-0.5,0.2-0.7s0.2-0.5,0.3-0.7c0.1-0.2,0.2-0.5,0.3-0.7C0.8,8,0.9,7.7,1,7.5
			C1.2,7.3,1.3,7,1.4,6.8c0.1-0.2,0.3-0.4,0.4-0.7s0.3-0.4,0.5-0.6c0.2-0.2,0.3-0.4,0.5-0.6c0.2-0.2,0.3-0.4,0.5-0.6
			c0.2-0.2,0.4-0.4,0.5-0.6C4,3.5,4.2,3.4,4.4,3.2C4.6,3,4.8,2.8,5,2.7c0.2-0.2,0.4-0.3,0.6-0.5C5.8,2,6,1.9,6.2,1.7
			s0.4-0.3,0.7-0.4c0.2-0.1,0.5-0.3,0.7-0.4c0.2-0.1,0.5-0.2,0.7-0.4C8.5,0.5,8.8,0.4,9,0.3C9.3,0.2,9.5,0.1,9.7,0s0.5-0.2,0.7-0.2
			c0.3-0.1,0.5-0.1,0.8-0.2c0.3-0.1,0.5-0.1,0.8-0.2c0.3-0.1,0.5-0.1,0.8-0.1c0.3,0,0.5-0.1,0.8-0.1c0.3,0,0.5,0,0.8-0.1
			C14.6-1,14.9-1,15.1-1L15.1-1z"/>
	</g>
	<path id="P" class="st1" d="M42.8,51.9V66H30.8V24.2h15.9c11.5,0,16.8,5.1,16.8,14v0.2c0,8.8-5.9,13.5-16.3,13.5H42.8z M42.8,43.7
		h3.5c3.9,0,5.9-1.8,5.9-5.3v-0.2c0-3.6-2.1-5-5.8-5h-3.5V43.7z"/>
</g>
<path id="plug" class="st2" d="M161.2,75V28.9h-9.5V75H161.2z M117,90.9V71.8c1.2,1.4,2.8,2.4,4.6,3.2c1.9,0.7,4,1.1,6.3,1.1
	c3.2,0,6.1-0.8,8.7-2.3c2.6-1.5,4.5-3.7,6-6.4c1.4-2.7,2.1-5.9,2.1-9.4c0-3.5-0.7-6.7-2.1-9.4c-1.4-2.8-3.4-4.9-5.9-6.4
	c-2.5-1.5-5.4-2.2-8.7-2.2c-2.6,0-5,0.5-7.1,1.5c-2.1,1-3.8,2.3-4.9,4.1l-0.6-4.4h-7.8v49.9H117z M226,92c3.8,0,7.1-0.7,9.9-2.1
	c2.8-1.4,4.9-3.4,6.4-5.9c1.5-2.6,2.2-5.5,2.2-8.9V41h-8.8l-0.5,4c-1-1.6-2.5-2.8-4.5-3.7c-2-0.9-4.2-1.4-6.6-1.4
	c-3.1,0-6,0.7-8.4,2.2c-2.5,1.5-4.4,3.6-5.8,6.2c-1.4,2.7-2.1,5.7-2.1,9.1c0,3.3,0.7,6.3,2.1,8.9c1.4,2.6,3.3,4.6,5.8,6
	c2.5,1.4,5.3,2.2,8.4,2.2c2.4,0,4.6-0.4,6.5-1.3c1.9-0.9,3.4-2,4.5-3.5v5.7c0,2.5-0.8,4.6-2.4,6c-1.6,1.5-3.8,2.2-6.6,2.2
	c-2.3,0-4.2-0.5-5.8-1.5s-2.5-2.6-2.9-4.6H208c0.4,4.4,2.3,7.9,5.6,10.5C216.9,90.7,221,92,226,92z M188.2,74.8
	c-1.8,0.8-3.8,1.3-6.1,1.3c-4.1,0-7.2-1.2-9.4-3.7c-2.2-2.4-3.3-5.7-3.3-9.8V41h9.5V61c0,2.4,0.5,4.2,1.6,5.2c1.1,1,2.6,1.6,4.7,1.6
	c2,0,3.6-0.7,4.8-2c1.2-1.3,1.7-3.1,1.7-5.2V41h9.4V75h-7.8l-0.6-4C191.5,72.7,190,73.9,188.2,74.8z M219.8,63.8
	c1.6,1.7,3.7,2.5,6.1,2.5c2.5,0,4.6-0.9,6.3-2.6c1.6-1.7,2.5-3.9,2.5-6.5c0-2.7-0.8-4.9-2.5-6.6c-1.6-1.7-3.8-2.5-6.4-2.5
	c-2.5,0-4.6,0.9-6.1,2.6c-1.6,1.7-2.4,3.9-2.4,6.5C217.4,59.9,218.2,62.1,219.8,63.8z M119.6,64.9c1.6,1.7,3.8,2.6,6.5,2.6
	c2.7,0,4.9-0.9,6.5-2.7c1.6-1.8,2.5-4.1,2.5-6.9c0-2.8-0.8-5.2-2.5-6.9c-1.6-1.8-3.8-2.7-6.4-2.7c-2.7,0-4.9,0.9-6.5,2.6
	c-1.7,1.7-2.5,4.1-2.5,7C117.1,60.9,118,63.2,119.6,64.9z"/>
<path id="LOGOTYPE" class="st2" d="M172.6,4.3c-0.5,0.5-1.1,0.7-1.8,0.7c-0.7,0-1.4-0.2-1.9-0.7c-0.5-0.5-0.7-1.1-0.7-1.8
	c0-0.7,0.2-1.3,0.7-1.8c0.5-0.5,1.1-0.7,1.9-0.7c0.7,0,1.3,0.2,1.8,0.7c0.5,0.5,0.7,1.1,0.7,1.8C173.3,3.2,173.1,3.8,172.6,4.3z
	 M163.4,22.8V11.1h5.5v11.8h3.7V8h-9.2V4.1h-3.7V8h-2.8v3.1h2.8v11.8H163.4z M110.8,29.7v-8.4c0.5,0.7,1.2,1.2,2.1,1.5
	c0.9,0.4,1.8,0.5,2.9,0.5c1.4,0,2.7-0.3,3.8-1c1.1-0.7,2-1.6,2.6-2.8c0.6-1.2,0.9-2.6,0.9-4.1c0-1.5-0.3-2.9-0.9-4.1
	c-0.6-1.2-1.5-2.1-2.6-2.8c-1.1-0.7-2.3-1-3.7-1c-1.2,0-2.2,0.2-3.1,0.7c-0.9,0.5-1.7,1.1-2.2,1.9L110.2,8h-3.1v21.6H110.8z
	 M132.8,23.3c1.2,0,2.2-0.2,3.2-0.7c0.9-0.5,1.7-1.1,2.2-1.9v2.1h3.6V8h-3.1l-0.3,1.9c-0.5-0.7-1.2-1.3-2.2-1.7
	c-0.9-0.4-1.9-0.6-3-0.6c-1.4,0-2.7,0.3-3.8,1c-1.1,0.7-2,1.6-2.6,2.8c-0.6,1.2-0.9,2.6-0.9,4.2c0,1.6,0.3,2.9,0.9,4.1
	c0.6,1.2,1.4,2.1,2.5,2.7C130.2,23,131.4,23.3,132.8,23.3z M189.1,21.7c-1.4,1.1-3,1.6-5,1.6c-1.5,0-2.9-0.3-4.1-1
	c-1.2-0.7-2.1-1.6-2.8-2.8c-0.7-1.2-1-2.6-1-4.1c0-1.5,0.3-2.9,1-4.1c0.7-1.2,1.6-2.1,2.8-2.8c1.2-0.7,2.6-1,4.1-1
	c2,0,3.7,0.5,5.1,1.6c1.4,1.1,2.1,2.5,2.3,4.3h-3.8c-0.2-0.8-0.6-1.5-1.3-1.9s-1.4-0.7-2.4-0.7c-1.2,0-2.2,0.4-2.9,1.2
	c-0.7,0.8-1.1,2-1.1,3.4c0,1.4,0.4,2.5,1.1,3.3c0.7,0.8,1.7,1.2,2.9,1.2c1,0,1.8-0.2,2.4-0.7c0.7-0.5,1.1-1.1,1.2-1.9h3.8
	C191.2,19.2,190.4,20.6,189.1,21.7z M201.8,23.3c1.8,0,3.4-0.5,4.8-1.4c1.3-0.9,2.2-2.2,2.5-3.7h-3.6c-0.2,0.6-0.7,1.1-1.3,1.5
	c-0.6,0.4-1.4,0.5-2.3,0.5c-1.2,0-2.1-0.3-2.9-1c-0.7-0.7-1.1-1.6-1.2-2.7h11.1c0.1-0.5,0.2-1.1,0.2-1.8c0-1.4-0.3-2.6-0.9-3.7
	c-0.6-1.1-1.5-1.9-2.6-2.5c-1.1-0.6-2.4-0.9-3.8-0.9c-1.5,0-2.8,0.3-3.9,1c-1.2,0.6-2.1,1.6-2.7,2.7c-0.7,1.2-1,2.5-1,4.1
	c0,1.6,0.3,2.9,1,4.1c0.6,1.2,1.5,2.1,2.7,2.8C198.9,22.9,200.3,23.3,201.8,23.3z M219.2,23.3c1.8,0,3.4-0.5,4.8-1.4
	c1.3-0.9,2.2-2.2,2.5-3.7h-3.6c-0.2,0.6-0.7,1.1-1.3,1.5c-0.6,0.4-1.4,0.5-2.3,0.5c-1.2,0-2.1-0.3-2.9-1c-0.7-0.7-1.1-1.6-1.2-2.7
	h11.1c0.1-0.5,0.2-1.1,0.2-1.8c0-1.4-0.3-2.6-0.9-3.7c-0.6-1.1-1.5-1.9-2.6-2.5c-1.1-0.6-2.4-0.9-3.8-0.9c-1.5,0-2.8,0.3-3.9,1
	c-1.2,0.6-2.1,1.6-2.7,2.7c-0.7,1.2-1,2.5-1,4.1c0,1.6,0.3,2.9,1,4.1c0.6,1.2,1.5,2.1,2.7,2.8C216.4,22.9,217.7,23.3,219.2,23.3z
	 M233.5,29.7v-8.4c0.5,0.7,1.2,1.2,2.1,1.5c0.9,0.4,1.8,0.5,2.9,0.5c1.4,0,2.7-0.3,3.8-1s1.9-1.6,2.6-2.8c0.6-1.2,0.9-2.6,0.9-4.1
	c0-1.5-0.3-2.9-0.9-4.1c-0.6-1.2-1.5-2.1-2.6-2.8c-1.1-0.7-2.3-1-3.7-1c-1.2,0-2.2,0.2-3.1,0.7c-0.9,0.5-1.7,1.1-2.2,1.9L232.9,8
	h-3.1v21.6H233.5z M149.7,22.8v-7.4c0-1.4,0.4-2.4,1.1-3.1c0.7-0.7,1.7-1.1,3.1-1.1c0.2,0,0.5,0,0.9,0.1V8c-0.4-0.1-0.9-0.1-1.4-0.1
	c-0.9,0-1.7,0.2-2.4,0.6c-0.7,0.4-1.1,1-1.3,1.7L149.4,8H146v14.8H149.7z M197.8,14h7.4c0-1-0.4-1.9-1-2.5c-0.7-0.6-1.5-0.9-2.6-0.9
	c-1.1,0-2,0.3-2.7,0.9C198.2,12.1,197.8,12.9,197.8,14z M215.2,14h7.4c0-1-0.4-1.9-1-2.5c-0.7-0.6-1.5-0.9-2.6-0.9
	c-1.1,0-2,0.3-2.7,0.9C215.7,12.1,215.3,12.9,215.2,14z M130.7,18.7c0.8,0.8,1.8,1.2,3,1.2c1.2,0,2.3-0.4,3-1.3s1.2-1.9,1.2-3.3
	s-0.4-2.4-1.1-3.3c-0.8-0.8-1.8-1.2-3-1.2s-2.3,0.4-3,1.2c-0.8,0.8-1.1,1.9-1.1,3.3C129.5,16.7,129.9,17.8,130.7,18.7z M112.1,18.7
	c0.8,0.8,1.8,1.2,3,1.2c1.3,0,2.3-0.4,3-1.2c0.8-0.8,1.1-1.9,1.1-3.2c0-1.4-0.4-2.4-1.1-3.3c-0.8-0.8-1.8-1.2-3-1.2s-2.3,0.4-3,1.2
	c-0.8,0.8-1.2,1.9-1.2,3.3C110.9,16.8,111.3,17.9,112.1,18.7z M234.8,18.7c0.8,0.8,1.8,1.2,3,1.2c1.3,0,2.3-0.4,3-1.2
	c0.8-0.8,1.1-1.9,1.1-3.2c0-1.4-0.4-2.4-1.1-3.3c-0.8-0.8-1.8-1.2-3-1.2c-1.2,0-2.3,0.4-3,1.2c-0.8,0.8-1.2,1.9-1.2,3.3
	C233.6,16.8,234,17.9,234.8,18.7z"/>
</svg>
